<svg width="86" height="177" viewBox="0 0 86 177" fill="none" xmlns="http://www.w3.org/2000/svg">
<path d="M34.0971 159.228C34.0971 159.228 36.0284 159.453 37.433 161.567C39.2326 164.267 39.8471 167.146 38.7059 169.531C37.5647 171.87 37.3013 172.455 37.0818 173.715C36.9502 174.48 37.6525 177.134 37.8719 177.719C38.2231 178.934 37.3013 179.069 37.3013 179.069C37.6964 179.924 37.2574 180.509 37.038 180.509C35.9406 180.374 35.2822 176.999 34.5799 175.56C34.5799 175.56 35.6773 179.519 35.8528 181.409C35.9845 183.163 34.3166 183.028 33.8338 181.139C33.8338 181.139 32.4731 180.644 31.9024 178.889C31.3318 177.134 30.454 173.625 30.7612 171.465C31.0685 169.306 32.2097 164.267 32.2097 164.267L34.0971 159.228Z" fill="#FAC2A8"/>
<path d="M32.7366 167.278C32.9999 168.043 33.2194 168.853 33.4389 169.663C33.6144 170.473 33.79 171.282 33.8339 172.137C33.8339 172.362 33.8339 172.542 33.79 172.767C33.7461 172.947 33.7461 173.127 33.79 173.352C33.8339 173.712 34.0095 174.072 34.2289 174.342C34.4923 174.612 34.8434 174.747 35.1068 174.567C35.2385 174.477 35.3702 174.342 35.414 174.207C35.5018 174.072 35.5457 173.892 35.5457 173.712C35.5896 173.307 35.5457 172.902 35.5457 172.497C35.5457 172.092 35.5457 171.642 35.6335 171.237C35.7652 170.383 36.1163 169.573 36.6869 168.943C36.9503 168.628 37.2576 168.358 37.477 167.998C37.6965 167.683 37.8721 167.323 37.9598 166.918C38.1793 166.153 38.0476 165.298 37.6526 164.579C38.1354 165.253 38.3549 166.108 38.1793 166.963C38.0476 167.818 37.477 168.538 36.9503 169.123C36.4675 169.753 36.1602 170.473 36.0286 171.282C35.8969 172.047 35.9847 172.857 35.9408 173.712C35.8969 173.937 35.8969 174.162 35.7652 174.387C35.6335 174.567 35.5018 174.792 35.2824 174.882C35.0629 175.017 34.7995 175.017 34.5801 174.927C34.3606 174.837 34.1412 174.702 34.0095 174.567C33.7022 174.252 33.5266 173.802 33.4828 173.352C33.4389 173.127 33.4828 172.902 33.5266 172.677C33.5705 172.497 33.5705 172.272 33.5705 172.092C33.5705 171.282 33.4389 170.473 33.3072 169.663C33.1316 168.898 32.9121 168.088 32.7366 167.278Z" fill="#DC918B"/>
<path d="M33.0438 173.177C33.0877 173.897 33.1316 174.572 33.2194 175.246C33.3072 175.921 33.4828 176.596 33.7022 177.226C33.79 177.541 33.9656 177.856 34.0973 178.171C34.2289 178.486 34.4045 178.756 34.5801 179.116C34.7118 179.431 34.7995 179.881 34.624 180.196C34.4923 180.556 34.185 180.78 33.8339 180.915C34.1411 180.735 34.4045 180.466 34.4923 180.151C34.5801 179.836 34.4923 179.521 34.3606 179.206C34.2289 178.936 34.0095 178.621 33.8339 178.306C33.6583 177.991 33.5266 177.676 33.395 177.316C33.1316 176.641 32.956 175.966 32.8683 175.246C32.7366 174.617 32.7366 173.852 33.0438 173.177Z" fill="#DC918B"/>
<path d="M36.379 174.031C36.3351 174.436 36.379 174.841 36.5106 175.201C36.5545 175.381 36.6862 175.516 36.774 175.696C36.8618 175.875 36.9496 176.1 36.9935 176.28C37.2129 177.09 37.3446 177.9 37.3885 178.71C37.169 177.945 36.9935 177.135 36.6862 176.415C36.5984 176.235 36.5107 176.055 36.4229 175.92C36.3351 175.741 36.2473 175.516 36.2473 175.291C36.2034 174.841 36.2473 174.436 36.379 174.031Z" fill="#DC918B"/>
<path d="M32.1227 159.226L31.0254 164.175C31.0254 164.175 36.9509 163.546 40.4624 167.55L41.428 160.261C41.4719 160.261 39.1456 158.191 32.1227 159.226Z" fill="#EF3F54"/>
<path d="M32.1222 159.229C32.1222 159.229 30.2787 153.11 32.0783 148.656C33.8779 144.201 36.4676 124.405 38.1355 117.026C39.0134 113.157 42.6565 108.028 44.8512 107.218C46.6069 106.543 47.0897 125.8 47.4409 128.274C45.2901 134.618 41.9103 143.707 41.9103 144.516C41.9103 151.535 38.6622 161.029 38.6622 161.029C38.6622 161.029 35.458 159.724 32.1222 159.229Z" fill="#BD1A3B"/>
<path d="M40.461 142.039L39.0564 173.039C39.0564 173.039 48.8445 178.303 56.5697 178.663C62.1441 206.873 60.8273 208.807 61.3102 211.507C61.5735 212.857 63.022 235.263 62.8903 236.073C62.7147 236.882 62.5831 238.277 62.8025 239.222C62.9781 239.942 62.5392 243.676 62.5392 243.676C62.5392 243.676 64.7777 244.351 67.6308 244.666C70.4838 244.981 74.1708 243.946 75.2681 243.946C75.2681 243.946 74.9609 241.967 75.2681 240.707C75.5315 239.672 74.6097 238.367 74.9609 237.242C75.2681 236.118 75.7071 230.134 75.7071 223.7C75.7071 216.006 75.2681 209.707 74.4781 207.413C74.7853 186.716 74.522 174.658 74.4781 173.579C74.3464 168.764 73.7319 165.165 73.7319 163.86C73.7319 162.556 72.7662 141.814 72.7662 141.814L40.461 142.039Z" fill="#474E64"/>
<path d="M51.7837 167.057C51.9154 168.362 52.0471 169.712 52.1788 171.062C52.3104 172.411 52.3982 173.716 52.486 175.066V175.336H52.2227H49.5891H49.3696V175.111C49.3257 173.941 49.2818 172.771 49.2379 171.602C49.194 170.432 49.194 169.262 49.1502 168.092L49.2818 168.227C48.6234 168.137 48.0089 168.047 47.3505 167.957H47.3066V167.912C47.3944 167.552 47.5261 167.237 47.6139 166.877C47.5261 167.237 47.4822 167.597 47.3944 167.912L47.3505 167.822C48.0089 167.867 48.6673 167.912 49.2818 167.957H49.4135V168.092C49.5013 169.262 49.5891 170.432 49.6769 171.557C49.7647 172.726 49.8085 173.896 49.8963 175.021L49.633 174.796H52.2666L52.0471 175.066C52.0032 173.716 51.9154 172.411 51.9154 171.062C51.7837 169.712 51.7837 168.407 51.7837 167.057Z" fill="#343948"/>
<path d="M74.4787 160.531L74.4348 164.13C74.4348 164.13 62.1008 166.425 59.9501 166.56C57.7993 166.65 56.5703 162.871 56.5703 162.871L58.8089 160.756L74.4787 160.531Z" fill="#EF3F54"/>
<path d="M38.8798 159.544L38.4409 163.144C38.4409 163.144 46.2539 165.798 48.3607 166.158C50.4676 166.563 52.2233 163.009 52.2233 163.009L50.292 160.624L38.8798 159.544Z" fill="#EF3F54"/>
<path d="M39.0562 172.996C39.0562 172.996 40.1096 198.236 40.1096 199.361C40.1096 200.486 40.8997 237.244 40.5924 238.054C40.2852 238.864 39.8023 242.868 39.8023 242.868C39.8023 242.868 43.0943 244.218 45.2451 244.353C47.2203 244.488 48.1859 244.623 53.5847 243.318C53.1458 239.989 53.1897 236.254 53.1897 235.13C53.1897 234.005 54.3309 221.182 54.3309 219.382C54.3309 217.583 55.2527 207.145 54.1554 202.645C53.8042 201.296 55.121 178.485 55.121 178.485C55.121 178.485 47.3519 177.135 39.0562 172.996Z" fill="#343948"/>
<path d="M38.1343 164.31V168.314C38.1343 168.314 43.7965 172.543 59.9491 171.733C76.1017 170.923 74.785 169.979 74.785 169.979L74.4777 163.185L38.1343 164.31Z" fill="#31374C"/>
<path d="M75.3556 108.789C75.3556 108.789 72.8976 107.619 68.201 106.269C65.1285 105.414 62.5388 104.829 59.1152 104.829C53.3652 104.784 46.7812 106.584 44.9377 107.169C43.0064 107.799 40.8118 114.818 40.3729 122.286C40.0217 128.09 39.3194 136.594 38.7927 146.582C38.4854 152.116 36.5103 161.024 38.1782 164.309C58.6763 170.743 74.5216 164.129 74.5216 164.129C76.7602 159.855 74.6094 154.321 76.6724 129.53C77.638 117.427 75.3556 108.789 75.3556 108.789Z" fill="#BD1A3B"/>
<path d="M44.8932 107.216C44.3665 107.441 44.0154 107.936 43.752 108.386C43.4448 108.881 43.2253 109.376 43.0058 109.916C42.5669 110.951 42.2597 112.03 41.9524 113.155C41.3818 115.36 41.0306 117.564 40.7673 119.814C40.6356 120.939 40.5917 122.064 40.5039 123.188L40.2845 126.608C40.1528 128.857 39.9772 131.152 39.8016 133.402C39.4505 137.946 39.1432 142.49 38.7043 146.989C38.3093 151.534 37.8703 156.033 37.3436 160.577L39.2749 133.357L39.7577 126.563L39.9772 123.144C40.065 122.019 40.1089 120.849 40.2845 119.724C40.5478 117.475 40.9868 115.225 41.6452 113.02C41.9524 111.94 42.3474 110.861 42.8303 109.826C43.0497 109.331 43.357 108.791 43.6642 108.341C43.9715 107.846 44.3665 107.396 44.8932 107.216Z" fill="#E0363C"/>
<path d="M64.821 91.6929L51.4775 92.0978C51.4775 92.0978 52.1359 98.9815 52.1798 108.43C52.1798 110.229 53.1455 112.749 53.1455 112.749C53.1455 112.749 58.9394 111.984 64.8649 105.28C64.426 103.526 64.821 91.6929 64.821 91.6929Z" fill="#DC918B"/>
<path d="M51.828 166.653C50.3357 145.687 54.3299 116.892 54.6372 114.778L52.9693 112.843L53.3643 112.483L55.2078 114.598V114.733C55.1639 115.047 50.8624 145.012 52.3987 166.608L51.828 166.653Z" fill="#E0363C"/>
<path d="M27.0295 70.4141C27.0295 70.4141 23.518 58.6262 18.1631 63.6653C12.8081 68.7044 20.5333 84.0917 29.1364 80.1774C29.1364 80.2224 31.1554 78.4677 27.0295 70.4141Z" fill="#F7AB8D"/>
<path d="M15.0479 26.9082C8.5517 28.9328 11.8437 41.7106 13.1605 45.085C18.0326 57.6828 18.9982 68.8858 23.212 72.8901C23.212 72.8901 25.6261 23.6238 15.0479 26.9082Z" fill="#2B2E3A"/>
<path d="M83.1242 67.4873C83.0803 68.0272 81.7196 82.1097 73.3799 80.625L74.0383 71.8515L83.1242 67.4873Z" fill="#2B2E3A"/>
<path d="M74.6113 21.598C74.6113 21.598 25.4511 15.4791 18.121 30.3265C12.371 41.9344 18.955 53.1374 22.1153 67.6699C24.4855 78.5129 24.8805 86.1166 25.934 87.9163C30.4988 96.0148 42.1305 103.214 47.5732 103.034C59.5999 102.629 69.9148 92.2355 73.6896 84.6319C75.7964 80.3126 76.3671 67.1749 75.3575 51.7427C74.5236 38.515 76.6743 26.5472 74.6113 21.598Z" fill="#FAC2A8"/>
<path d="M52.8124 54.1366C53.6411 53.9503 54.1698 53.1302 53.9932 52.3049C53.8165 51.4797 53.0015 50.9618 52.1727 51.1481C51.344 51.3345 50.8153 52.1546 50.9919 52.9798C51.1686 53.8051 51.9836 54.323 52.8124 54.1366Z" fill="#31374C"/>
<path d="M52.9857 52.3211C53.2213 52.2625 53.3659 52.0195 53.3088 51.7783C53.2517 51.5372 53.0145 51.3892 52.7789 51.4478C52.5434 51.5064 52.3987 51.7495 52.4558 51.9906C52.5129 52.2318 52.7502 52.3797 52.9857 52.3211Z" fill="white"/>
<path opacity="0.2" d="M23.9576 64.0234C23.9576 65.1032 25.7134 65.958 27.8641 65.913C30.0149 65.868 31.7267 64.9682 31.7267 63.8884C31.7267 62.8086 29.971 61.9538 27.8202 61.9988C25.6695 62.0438 23.9576 62.9436 23.9576 64.0234Z" fill="#EF3F54"/>
<path opacity="0.2" d="M50.9958 60.245C51.4786 61.3698 53.7172 61.4598 55.9557 60.38C58.1943 59.3452 59.5989 57.5905 59.116 56.4657C58.6332 55.3409 56.3947 55.2509 54.1561 56.3307C51.8737 57.3655 50.4691 59.1202 50.9958 60.245Z" fill="#EF3F54"/>
<path d="M28.5423 58.993C29.3711 58.8066 29.8998 57.9866 29.7231 57.1613C29.5465 56.3361 28.7315 55.8182 27.9027 56.0046C27.0739 56.191 26.5453 57.011 26.7219 57.8362C26.8985 58.6615 27.7136 59.1794 28.5423 58.993Z" fill="#31374C"/>
<path d="M28.7156 57.1737C28.9511 57.1151 29.0958 56.872 29.0387 56.6309C28.9816 56.3897 28.7443 56.2417 28.5088 56.3004C28.2732 56.359 28.1286 56.602 28.1857 56.8432C28.2428 57.0843 28.48 57.2323 28.7156 57.1737Z" fill="white"/>
<path d="M19.613 48.2312C20.9737 46.2066 22.6856 44.5868 26.3726 44.0469C28.3039 44.0019 30.323 43.777 28.3917 41.9773C25.0997 39.2778 17.8573 43.822 17.594 49.221C17.2428 51.5606 18.8669 49.7159 19.613 48.2312Z" fill="#2B2E3A"/>
<path d="M56.3071 41.2145C54.4636 39.5948 52.4006 38.515 48.7136 38.9649C46.8262 39.4149 44.851 39.7748 46.2556 37.5252C48.7575 34.0159 56.8777 36.5354 58.5017 41.6195C59.4674 43.824 57.4483 42.4743 56.3071 41.2145Z" fill="#2B2E3A"/>
<path opacity="0.6" d="M41.3847 43.2385C41.3847 43.2385 38.5756 47.4228 32.1233 48.1877C32.1233 48.1877 38.6195 57.681 35.4153 70.8637C35.4153 70.8637 42.482 74.0581 47.6175 67.5792C47.5736 67.5792 41.0775 56.4212 41.3847 43.2385Z" fill="url(#paint0_linear_2603_756)"/>
<path d="M73.2048 63.7532C68.6399 56.3745 70.4834 48.3659 65.5674 40.5823C61.8804 34.8234 61.0903 24.3852 63.2411 20.7859C63.2411 20.7859 76.0139 16.4217 76.7162 16.8266C80.8861 19.2561 86.5483 31.9889 84.3097 57.9042L73.2048 63.7532Z" fill="#2B2E3A"/>
<path d="M74.0827 60.38C74.0827 60.38 75.3117 52.9563 81.6762 55.0709C88.0406 57.2305 88.7429 76.0823 74.346 72.9778C74.346 72.9778 73.0292 68.1186 74.0827 60.38Z" fill="#FAC2A8"/>
<path d="M82.3353 59.8412C81.5891 59.4363 80.7113 59.1663 79.8773 59.2113C79.0433 59.2113 78.2533 59.6613 77.7705 60.3361C77.2876 61.011 76.9804 61.7759 76.7609 62.5857C76.5414 63.3956 76.4537 64.2505 76.3659 65.0603L76.0586 64.7904C76.8926 64.6554 77.7266 64.7454 78.4727 65.1953C79.2189 65.6002 79.6578 66.4101 79.7456 67.2199C79.8334 67.6249 79.7456 68.0298 79.6578 68.4347C79.5262 68.8397 79.2628 69.1546 78.9556 69.4245C78.3411 69.9195 77.5949 70.2344 76.8048 70.3694C77.551 70.1444 78.2533 69.7845 78.78 69.2446C79.0433 68.9746 79.2628 68.6597 79.3506 68.3447C79.4384 67.9848 79.4823 67.6699 79.3945 67.3099C79.2628 66.59 78.8678 65.9601 78.2533 65.6452C77.6388 65.2853 76.8487 65.2403 76.1903 65.3753L75.8831 65.4202L75.927 65.1053C76.0147 64.2504 76.1464 63.3956 76.3659 62.5407C76.5853 61.6859 76.9365 60.831 77.5071 60.1562C78.0777 59.4363 78.9994 58.9864 79.9212 59.0314C80.7991 58.9414 81.633 59.3013 82.3353 59.8412Z" fill="#DC918B"/>
<path d="M35.3704 70.8166C35.3704 70.8166 42.5688 79.275 47.5726 67.5322C47.5726 67.5772 42.7444 70.7266 35.3704 70.8166Z" fill="#DC918B"/>
<path d="M9.47445 20.9663C13.6443 15.4323 21.3695 4.45422 32.4744 2.96948C38.0049 2.33959 38.5755 3.59937 38.5755 3.59937C38.0049 2.78951 35.8542 0 35.8542 0C45.1156 3.01447 75.4896 -6.88379 76.6747 16.872C78.5182 18.4018 79.6594 19.6616 79.7911 20.2914C80.4495 23.3059 64.3408 39.953 64.4286 32.2593C64.7797 25.7355 65.1747 24.8806 62.5411 23.5309C57.7568 21.0563 50.295 21.9112 34.0984 29.5148C26.505 33.0692 12.3714 38.5133 0.520264 27.7151C0.520264 27.6702 5.30461 26.5004 9.47445 20.9663Z" fill="#2B2E3A"/>
<path d="M33.1328 79.5938C40.9897 84.408 37.6538 91.7417 47.9687 90.392C57.7568 88.0524 59.6442 71.0903 59.6442 71.0903C45.9496 83.9131 33.1328 79.5938 33.1328 79.5938Z" fill="#31374C"/>
<path d="M55.8693 83.417C48.2319 84.6318 44.6765 87.6913 43.0525 90.2108C44.2376 90.6158 45.8178 90.7057 47.9685 90.4358C51.5678 89.5359 54.1136 86.7014 55.8693 83.417Z" fill="#F97A7A"/>
<path d="M33.1328 79.5939C34.8007 80.5837 35.942 81.7085 36.8198 82.8333C37.2149 83.3282 50.7778 82.7883 58.503 76.5794C59.3369 73.4749 59.6003 71.0903 59.6003 71.0903C45.9496 83.9131 33.1328 79.5939 33.1328 79.5939Z" fill="white"/>
<path d="M34.1424 80.2692C34.4935 80.4942 34.8008 80.7641 35.108 81.0341C35.4153 81.304 35.7225 81.574 36.0298 81.8889C36.337 82.2039 36.6004 82.5188 36.8637 82.8338C37.9172 84.1385 38.7072 85.6233 39.5851 87.018C40.024 87.7379 40.5069 88.4128 41.0775 88.9527C41.3847 89.2226 41.692 89.4476 42.0431 89.6725C42.3943 89.8525 42.7454 90.0325 43.1404 90.1225C43.316 90.1675 43.5355 90.2124 43.7111 90.2574C43.8866 90.3024 44.1061 90.3474 44.2817 90.3474C44.6767 90.3924 45.0717 90.4374 45.4668 90.4374C45.8618 90.4374 46.2569 90.4374 46.6958 90.3924C47.0908 90.3924 47.4859 90.3024 47.8809 90.2574C49.7244 89.8075 51.4362 88.7277 52.7969 87.333C54.1576 85.9382 55.211 84.2735 56.0889 82.4738C56.9668 80.7191 57.6252 78.8295 58.1519 76.9398C58.4152 75.995 58.6786 75.0051 58.8542 74.0603C59.0736 73.0705 59.2492 72.1256 59.3809 71.1358L59.732 71.3158L58.3713 72.5306C57.8885 72.9355 57.4496 73.3404 56.9668 73.7004C56.4839 74.0603 56.0011 74.4652 55.4744 74.7802C54.9916 75.1401 54.4649 75.5 53.9381 75.815C53.4114 76.1299 52.8847 76.4449 52.358 76.7598C51.8313 77.0748 51.2607 77.3447 50.7339 77.6147C50.1633 77.8846 49.6366 78.1096 49.066 78.3345C48.4954 78.5595 47.9248 78.7845 47.3542 78.9644C46.7836 79.1444 46.213 79.3244 45.5985 79.5043C45.0278 79.6843 44.4133 79.8193 43.8427 79.9093C43.2282 80.0442 42.6576 80.1342 42.0431 80.2242C41.4286 80.3142 40.858 80.3592 40.2435 80.4042C39.0145 80.4492 37.8294 80.4492 36.6004 80.3592C35.4153 80.2242 34.1863 80.0442 33.045 79.6843C33.4401 79.8193 33.8351 80.0442 34.1424 80.2692ZM36.6882 80.1792C37.8733 80.2692 39.1023 80.2692 40.2874 80.1342C40.9019 80.0892 41.4725 79.9993 42.087 79.9093C42.7015 79.8193 43.2721 79.7293 43.8427 79.5943C44.4133 79.4593 45.0278 79.3244 45.5985 79.1444C46.1691 78.9644 46.7397 78.7845 47.3103 78.6045C47.8809 78.3795 48.4515 78.1996 48.9782 77.9296C49.5488 77.7047 50.0755 77.4347 50.6023 77.1648C51.129 76.8948 51.6557 76.6248 52.1824 76.3099C52.7091 75.995 53.2358 75.725 53.7187 75.3651C54.2454 75.0501 54.7282 74.6902 55.211 74.3303C55.6939 74.0153 56.1767 73.6104 56.6595 73.2504C57.1423 72.8905 57.5813 72.4856 58.0641 72.0806L59.4248 70.8659L59.8637 70.4609L59.7759 71.0458C59.6442 72.0357 59.4687 73.0255 59.2931 74.0153C59.0736 75.0051 58.8542 75.995 58.5908 76.9398C58.0641 78.8744 57.3618 80.7641 56.4839 82.5638C55.6061 84.3635 54.5087 86.0732 53.1042 87.5129C51.6996 88.9527 49.9439 90.0775 47.9687 90.4824C47.5736 90.5274 47.1347 90.5724 46.7397 90.5724C46.3446 90.6174 45.9057 90.6174 45.5107 90.6174C45.1156 90.6174 44.6767 90.5724 44.2817 90.5274C44.0622 90.5274 43.8866 90.4824 43.6672 90.4374C43.4477 90.3924 43.2721 90.3474 43.0527 90.2574C42.6576 90.1225 42.2626 89.9425 41.9114 89.7625C41.5603 89.5376 41.2092 89.3126 40.9019 88.9977C40.2874 88.4128 39.8046 87.7379 39.3656 87.018C38.9267 86.2981 38.5317 85.5783 38.1366 84.8584C37.7416 84.1385 37.2588 83.4636 36.776 82.7888C36.5126 82.4738 36.2492 82.1589 35.9859 81.8439C35.7225 81.529 35.4153 81.259 35.108 80.9891C34.8008 80.7191 34.4935 80.4492 34.1424 80.2242C33.8351 79.9543 33.484 79.7293 33.1328 79.5043C34.2741 79.9093 35.4592 80.0892 36.6882 80.1792Z" fill="#DC918B"/>
<path d="M56.7469 71.0896C56.7469 71.0896 57.142 70.9097 57.6687 70.8197C57.8004 70.7747 57.976 70.7747 58.1076 70.7297C58.2832 70.6847 58.4588 70.7297 58.5905 70.6847C58.766 70.6847 58.9416 70.6847 59.1172 70.7297C59.205 70.7297 59.2928 70.7747 59.3805 70.7747L59.6439 70.8647C59.8195 70.9097 59.9512 70.9997 60.1267 71.0896C60.2584 71.1796 60.434 71.3146 60.5657 71.4046C60.6973 71.5396 60.829 71.6296 60.9607 71.7645C61.0485 71.8995 61.1802 71.9895 61.2679 72.1245C61.3557 72.2145 61.4435 72.3494 61.5313 72.4394C61.6191 72.5294 61.663 72.6194 61.7069 72.7094C61.7947 72.8444 61.8825 72.9344 61.8825 72.9344C61.8825 72.9344 61.8386 72.8444 61.7947 72.6644C61.7069 72.4844 61.663 72.2595 61.4874 71.9895C61.3996 71.8545 61.3118 71.7195 61.2241 71.5396C61.0924 71.4046 61.0046 71.2696 60.8729 71.0896C60.7412 70.9547 60.5657 70.8197 60.3901 70.6847C60.2145 70.5947 60.0389 70.4597 59.8195 70.4147L59.5122 70.3248C59.4244 70.2798 59.2928 70.2798 59.205 70.2798C58.9855 70.2348 58.8099 70.2798 58.5905 70.2798C58.4149 70.3248 58.1954 70.3248 58.0198 70.3697C57.8443 70.4147 57.7126 70.4597 57.537 70.5497C57.0542 70.7747 56.7469 71.0896 56.7469 71.0896Z" fill="#DC918B"/>
<path d="M48.8883 16.824C48.8883 16.824 51.1268 21.6831 44.9818 26.9022C38.0467 32.7512 29.1803 33.561 29.1803 33.561C29.1803 33.561 33.2185 30.5016 32.4723 27.1722C31.375 22.268 40.1536 14.1694 40.1536 14.1694L48.8883 16.824Z" fill="#2B2E3A"/>
<path d="M28.7432 3.86987C28.7432 3.86987 25.8023 4.72472 14.6974 11.6984C10.0447 14.6229 6.57716 9.7638 6.57716 9.7638C6.57716 9.7638 3.59243 21.7316 14.8291 20.4718C26.0657 19.1671 28.7432 3.86987 28.7432 3.86987Z" fill="#2B2E3A"/>
<path d="M64.6485 100.289C64.6485 100.289 59.3374 103.213 56.2649 103.438C53.1924 103.663 53.8069 111.132 53.5874 113.157C53.5874 113.157 60.742 112.122 63.4633 110.007C66.1847 107.893 67.1504 106.228 67.1504 106.228C67.1504 106.228 67.5015 101.864 67.0626 100.064C66.9309 99.614 64.6046 98.3542 64.6046 98.3542L64.6485 100.289Z" fill="#31374C"/>
<path d="M51.0843 102.625C51.0843 102.625 50.382 102.94 49.8992 103.614C49.4164 104.289 50.5137 108.834 50.3381 109.958C50.1626 111.083 52.7084 112.928 52.7084 112.928L53.3229 112.388L52.9717 104.829C52.9717 104.334 52.6206 103.884 52.1377 103.749L52.0939 102.4L51.0843 102.625Z" fill="#31374C"/>
<path d="M53.9804 112.976L53.717 112.886V112.256L53.0586 112.031L52.7514 112.526L52.4441 112.481L51.3907 115.046C51.259 115.361 51.4346 115.721 51.7418 115.811L52.6636 116.126C52.9708 116.216 53.322 116.036 53.4098 115.676L53.9804 112.976Z" fill="#E1E4F4"/>
<path d="M62.2774 123.412C62.1457 123.412 62.0579 123.457 61.9702 123.592L60.6973 125.167L60.3461 123.547C60.3022 123.367 60.2144 123.322 60.1266 123.322C59.995 123.322 59.9072 123.367 59.8194 123.502L58.6343 125.572L59.2049 125.617L59.995 124.177L60.3461 125.707L60.8289 125.752L61.9702 124.357L61.8824 125.842L62.3652 125.887L62.4969 123.817C62.4969 123.547 62.3652 123.457 62.2774 123.412Z" fill="white"/>
<path d="M58.0203 123.547L57.4058 125.481H57.9325L58.547 123.547H58.0203Z" fill="white"/>
<path d="M57.0545 124.039C57.0984 123.769 56.9667 123.454 56.44 123.454L55.4305 123.364L54.8599 125.298L55.3866 125.343L55.606 124.623H55.8694L56.3083 125.388L56.8789 125.433L56.3961 124.623C56.835 124.533 57.0106 124.264 57.0545 124.039ZM56.045 124.309L55.6499 124.264L55.8255 123.679L56.2205 123.724C56.44 123.724 56.5278 123.859 56.4839 124.039C56.4839 124.219 56.3083 124.309 56.045 124.309Z" fill="white"/>
<path d="M64.5606 125.928L65.0873 125.973L64.7362 124.129C64.6923 123.904 64.5606 123.859 64.4289 123.859C64.3411 123.859 64.2533 123.904 64.1656 123.994L62.761 125.793L63.2877 125.838L63.5511 125.433L64.4728 125.478L64.5606 125.928ZM63.7705 125.164L64.2972 124.489L64.4289 125.208L63.7705 125.164Z" fill="white"/>
<path d="M66.7096 125.705C66.2707 125.66 66.0512 125.39 66.0951 125.075C66.1829 124.67 66.578 124.4 67.1047 124.445C67.2803 124.445 67.4558 124.49 67.6314 124.535L67.7631 124.131C67.6314 124.086 67.368 124.041 67.1925 124.041C66.2707 123.996 65.7001 124.355 65.5684 124.985C65.4806 125.57 65.8318 125.974 66.6657 126.019C66.8413 126.019 66.973 126.019 67.1925 126.019L67.3241 125.615C67.1047 125.705 66.9291 125.75 66.7096 125.705Z" fill="white"/>
<path d="M44.6747 143.254C44.6747 143.254 43.8408 142.489 43.753 141.859C43.6652 141.23 44.2797 140.24 44.2797 140.24C44.2797 140.24 43.753 139.475 44.0163 138.53C44.2797 137.54 44.8942 137.135 44.8942 137.135C44.8942 137.135 44.1041 136.37 44.3675 135.471C44.6308 134.526 45.6404 134.211 46.9572 134.391C46.9572 134.391 54.3312 134.526 55.2968 135.381C56.6575 136.55 58.4132 139.97 58.4132 139.97C59.6422 141.14 59.2472 146.404 59.2472 146.404L55.9113 145.954C54.9018 147.034 47.9667 146.944 47.3083 146.629C45.8598 145.999 45.5087 145.909 44.5869 145.099C43.9724 144.514 44.6747 143.254 44.6747 143.254Z" fill="#FAC2A8"/>
<path d="M52.0498 128.767C51.962 129.982 52.4448 130.612 53.8055 133.356C54.3761 134.526 55.9563 133.941 57.6242 138.396C58.0631 139.61 49.9868 136.191 50.4696 135.696C51.4353 134.616 49.1967 132.592 49.2406 130.117C49.2406 127.957 52.2254 126.023 52.0498 128.767Z" fill="#FAC2A8"/>
<path d="M46.1227 134.438C46.1227 134.438 50.0292 134.123 50.6876 135.563C51.346 136.958 50.7315 137.678 49.9414 137.768C49.9414 137.768 50.5559 138.262 50.4242 139.297C50.2926 140.332 49.4147 140.467 48.4929 140.602C47.5712 140.737 45.1132 140.332 45.1132 140.332L46.1227 134.438Z" fill="#FAC2A8"/>
<path d="M57.8011 138.485L63.4194 139.475L62.4977 147.213L57.0549 146.358L57.8011 138.485Z" fill="#EF3F54"/>
<path d="M61.8807 139.206C63.373 135.561 68.9913 137.901 71.8444 137.406C70.747 132.997 70.2642 128.408 70.2642 128.408L68.2012 123.954C68.4207 113.695 71.2738 109.376 75.1363 108.521C75.1363 108.521 79.4818 110.276 80.7985 116.62C81.1936 118.554 85.2756 145.415 80.9302 149.284C77.0237 152.748 64.9971 151.984 61.3978 148.339L61.8807 139.206Z" fill="#BD1A3B"/>
<path d="M61.8794 139.206C62.055 138.756 62.2744 138.351 62.6256 138.036C62.9767 137.721 63.3718 137.496 63.8107 137.316C64.6885 137.001 65.6103 136.956 66.4882 136.956C67.4099 137.001 68.2878 137.091 69.1656 137.136C70.0435 137.226 70.9653 137.271 71.7992 137.136L71.6237 137.406C71.2286 135.921 70.9214 134.437 70.658 132.907C70.3947 131.422 70.1752 129.892 69.9996 128.363L70.0435 128.498C69.3412 127.013 68.6389 125.483 67.9805 123.998L67.9366 123.954V123.909C67.9805 122.379 68.0683 120.849 68.2878 119.319C68.4634 117.79 68.7706 116.305 69.2534 114.82C69.3851 114.46 69.5168 114.1 69.6485 113.74C69.7801 113.38 69.9557 113.02 70.1313 112.705C70.3069 112.346 70.4824 112.031 70.7019 111.716C70.9214 111.401 71.1408 111.086 71.4042 110.816C71.887 110.231 72.4576 109.736 73.116 109.331C73.7744 108.926 74.4767 108.656 75.2229 108.521C74.5206 108.701 73.8183 109.016 73.2038 109.421C72.5893 109.871 72.0626 110.366 71.6237 110.951C70.7019 112.121 70.1313 113.56 69.6924 114.955C69.2534 116.395 69.034 117.88 68.8584 119.409C68.6828 120.894 68.595 122.424 68.5511 123.954L68.5072 123.819C69.2095 125.303 69.8679 126.743 70.5263 128.228L70.5702 128.318V128.363C70.7458 129.847 70.9653 131.377 71.1847 132.862C71.4481 134.347 71.7553 135.831 72.0626 137.316L72.1065 137.541L71.887 137.586C70.9653 137.721 70.0435 137.631 69.1656 137.496C68.2878 137.406 67.366 137.271 66.4882 137.226C65.6103 137.181 64.6886 137.181 63.8546 137.406C62.9767 137.766 62.2305 138.351 61.8794 139.206Z" fill="#E0363C"/>
<path d="M80.9742 149.284C80.3597 149.869 79.5696 150.319 78.7795 150.634C77.9894 150.994 77.1116 151.219 76.2776 151.354C74.5658 151.669 72.8101 151.804 71.0982 151.714C69.3864 151.624 67.6307 151.399 65.9627 150.904C65.1288 150.679 64.2948 150.364 63.5047 149.959C62.7147 149.554 61.9685 149.105 61.3101 148.43L61.2223 148.34V148.25C61.2662 147.485 61.3101 146.72 61.354 145.955L61.5295 143.66C61.5734 142.896 61.6612 142.131 61.7051 141.366C61.749 140.601 61.8368 139.836 61.8807 139.071C61.8807 139.836 61.8807 140.601 61.8368 141.366C61.8368 142.131 61.8368 142.896 61.7929 143.66L61.749 145.955C61.7051 146.72 61.7051 147.485 61.6612 148.25L61.5734 148.07C62.8024 149.24 64.4265 149.869 66.0505 150.319C67.6746 150.769 69.3864 151.039 71.0982 151.129C72.8101 151.219 74.5219 151.219 76.1898 150.949C77.9016 150.814 79.5696 150.364 80.9742 149.284Z" fill="#E0363C"/>
<defs>
<linearGradient id="paint0_linear_2603_756" x1="38.0715" y1="43.6803" x2="41.7183" y2="71.4394" gradientUnits="userSpaceOnUse">
<stop stop-color="#FAC2A8"/>
<stop offset="0.2651" stop-color="#F7BCA5"/>
<stop offset="0.6038" stop-color="#EDAD9B"/>
<stop offset="0.981" stop-color="#DD938C"/>
<stop offset="1" stop-color="#DC918B"/>
</linearGradient>
</defs>
</svg>
